# xmcd CD database file
#
# Track frame offsets:
#	150
#	20683
#	31920
#	46305
#	58703
#	77815
#	94473
#	108208
#	125213
#	139308
#	155130
#	166998
#	178955
#	192650
#	206043
#	217540
#	229155
#	241773
#	255190
#	267723
#	280555
#	298873
#	310653
#
# Disc length: 4300 seconds
#
# Revision: 3
# Processed by: cddbd v1.5.2PL0 Copyright (c) Steve Scherf et al.
# Submitted via: CDex 1.50
#
DISCID=5810ca17
DTITLE=Nat King Cole - Vol. 005 - Nat King Cole - The Nat King Cole Trio
DYEAR=1957
DGENRE=Jazz
TTITLE0=Sweet Lorraine
TTITLE1=I Know that you Know
TTITLE2=Don't Let it go to Your Head
TTITLE3=Caravan
TTITLE4=You're Looking at Me
TTITLE5=(Get Your Kicks on) Route 66
TTITLE6=Just You, Just Me
TTITLE7=Lonely one
TTITLE8=It's only a Paper Moon
TTITLE9=When i Grow Too Old to Dream
TTITLE10=Bop Kick
TTITLE11=Peaches
TTITLE12=(I Love You) for Sentimental Reasons
TTITLE13=This Way Up
TTITLE14=Straighten Up and Fly Right
TTITLE15=Rhumba Azul
TTITLE16=I Like to Riff
TTITLE17=What is this Thing Called Love?
TTITLE18=Riffamarole
TTITLE19=But all i've got is Me 
TTITLE20=I've found a new Baby
TTITLE21=Honeysuckle Rose
TTITLE22=Exactly Like You
EXTD=YEAR: 1957
EXTT0=
EXTT1=
EXTT2=
EXTT3=
EXTT4=
EXTT5=
EXTT6=
EXTT7=
EXTT8=
EXTT9=
EXTT10=
EXTT11=
EXTT12=
EXTT13=
EXTT14=
EXTT15=
EXTT16=
EXTT17=
EXTT18=
EXTT19=
EXTT20=
EXTT21=
EXTT22=
PLAYORDER=
